<svg version="1.1" id="Layer_1" xmlns="http://www.w3.org/2000/svg" xmlns:xlink="http://www.w3.org/1999/xlink" x="0px" y="0px"
	 width="100%" viewBox="0 0 352 352" enable-background="new 0 0 352 352" xml:space="preserve">
<path fill="#FEFEFF" opacity="1.000000" stroke="none" 
	d="
M240.000000,353.000000 
	C160.000015,353.000000 80.500031,353.000000 1.000032,353.000000 
	C1.000021,235.666702 1.000021,118.333405 1.000011,1.000079 
	C118.333275,1.000053 235.666550,1.000053 352.999878,1.000026 
	C352.999908,118.333252 352.999908,235.666504 352.999939,352.999878 
	C315.500000,353.000000 278.000000,353.000000 240.000000,353.000000 
M67.015198,195.011307 
	C66.540863,195.126266 66.066528,195.241241 64.794754,195.341553 
	C62.221973,195.415329 59.574181,195.916733 57.090748,195.481140 
	C50.193707,194.271332 47.728783,195.384888 44.502708,201.878372 
	C44.502708,201.878372 44.358578,201.952911 44.007862,201.087234 
	C44.007862,196.846909 44.007862,192.606567 44.007862,188.232025 
	C40.647312,188.232025 38.077114,188.232025 35.377533,188.232025 
	C35.377533,197.778030 35.377533,207.072113 35.377533,216.695572 
	C38.066887,216.695572 40.364910,216.695572 43.314701,216.912216 
	C43.767334,216.936081 44.219967,216.959961 44.699490,217.779785 
	C45.113621,223.385773 49.178188,223.974319 53.497898,224.121948 
	C61.732460,224.403381 64.417290,222.877014 66.885864,216.950211 
	C67.389435,216.851257 67.893005,216.752304 69.180534,216.673462 
	C71.266396,216.509766 73.352249,216.346069 75.190582,216.201782 
	C75.861603,213.529205 76.427353,211.275894 76.974915,209.752594 
	C80.490456,218.206161 89.123009,219.951691 96.801804,213.575699 
	C103.966370,217.416931 111.080696,220.184265 117.638428,212.194519 
	C117.939217,213.852417 118.166824,215.106934 118.420609,216.505768 
	C120.886421,216.505768 123.160301,216.505768 125.611023,216.505768 
	C125.860794,215.155777 126.081818,213.961121 126.114464,213.784683 
	C128.848434,214.859467 131.508209,216.610565 134.290558,216.833710 
	C138.474792,217.169250 142.744812,216.435150 147.508957,216.058182 
	C147.556442,215.728729 147.603928,215.399277 147.690720,214.131683 
	C147.693008,210.642548 147.728806,207.153046 147.689987,203.664368 
	C147.626678,197.975800 145.753143,195.601089 140.935318,194.997223 
	C133.108353,194.016159 129.022522,196.021729 127.402237,202.310516 
	C131.613144,201.641479 135.483643,201.026535 139.354156,200.411575 
	C139.407074,200.959961 139.459976,201.508331 139.512894,202.056702 
	C137.116730,202.494751 134.600525,202.614929 132.358704,203.461609 
	C130.184235,204.282852 128.291580,205.850281 125.777397,207.396057 
	C125.777397,203.348251 125.777397,199.486633 125.777397,195.605804 
	C122.966675,195.605804 120.713409,195.605804 117.895554,195.605804 
	C117.895554,199.397812 117.895554,202.910339 117.895554,206.432983 
	C115.227539,204.883652 113.005173,203.593094 111.231316,202.563004 
	C112.708778,201.319748 114.593353,199.733917 116.611458,198.035721 
	C108.908417,192.345993 100.985115,193.940247 97.451797,200.780716 
	C94.752892,195.303574 89.998474,194.037827 84.586159,195.069244 
	C80.478668,195.852005 77.400749,198.234802 76.267685,202.431870 
	C76.038002,197.698990 75.808311,192.966110 75.579918,188.259857 
	C72.834930,188.259857 70.564095,188.259857 68.055717,188.259857 
	C67.940994,190.646332 67.838791,192.772537 67.015198,195.011307 
M181.480133,210.465607 
	C183.389236,215.171997 186.881622,217.317703 191.953598,217.176224 
	C196.325241,217.054276 199.938889,215.838196 202.025024,211.368835 
	C199.076477,209.946823 196.662491,207.442963 193.367111,210.588394 
	C192.844391,211.087341 190.629044,209.812988 189.196259,209.358475 
	C189.352478,208.781601 189.508713,208.204712 189.664932,207.627838 
	C193.911285,207.627838 198.157654,207.627838 202.336624,207.627838 
	C203.053772,201.483337 200.837036,197.183670 196.380310,195.466400 
	C191.044830,193.410522 185.867706,195.035873 181.403946,200.005920 
	C181.022446,199.970581 180.640930,199.935257 180.178436,198.989075 
	C180.178436,195.408325 180.178436,191.827576 180.178436,188.286972 
	C177.099411,188.286972 174.841583,188.286972 172.341797,188.286972 
	C172.198975,190.837708 172.071350,193.116913 171.933868,195.572128 
	C170.477417,195.361618 169.233047,195.085236 167.977356,195.016830 
	C162.237625,194.704117 158.487961,198.703430 158.331741,205.238388 
	C158.173035,211.877457 161.920319,216.985916 167.257141,216.931519 
	C171.363190,216.889679 175.463959,216.328339 179.921082,215.969513 
	C180.034195,214.006470 180.146744,212.052902 180.614685,210.082138 
	C180.614685,210.082138 180.966049,210.022003 181.480133,210.465607 
M238.751633,192.432846 
	C230.477615,184.016754 218.950485,185.350845 214.427155,195.248077 
	C211.099030,202.530136 213.340027,211.398041 219.487900,215.274094 
	C226.184372,219.496048 234.111542,217.542984 240.182907,211.180588 
	C240.307297,212.929077 240.431686,214.677567 240.555634,216.419846 
	C243.521545,216.419846 245.933914,216.419846 247.841278,216.419846 
	C251.457535,212.223816 244.456085,203.644302 255.138702,202.240829 
	C255.138702,207.432220 255.138702,211.944427 255.138702,216.475052 
	C258.960083,216.730347 262.371887,217.877335 264.554932,214.210556 
	C272.661346,219.367844 279.403870,218.223495 283.572693,211.354034 
	C283.996674,211.898499 284.420685,212.442963 285.158813,213.641785 
	C286.905029,214.704376 288.579559,216.460983 290.415924,216.650681 
	C292.620544,216.878403 296.608887,218.512772 296.800079,213.124146 
	C300.671295,216.245789 304.930328,217.930618 310.023346,216.994019 
	C315.731354,215.944321 319.387665,211.152328 318.953583,205.092133 
	C318.511963,198.926773 314.800568,195.425308 308.901306,194.781189 
	C303.782074,194.222244 300.021332,196.614456 296.529907,198.611908 
	C294.922577,195.757553 293.315277,192.903214 291.446045,189.583740 
	C290.001495,189.583740 287.753174,189.583740 285.304352,189.583740 
	C285.067657,191.730331 284.857941,193.632507 284.575653,196.192947 
	C282.412384,195.941284 280.576996,195.577087 278.735901,195.545715 
	C275.164429,195.484818 271.314392,194.778595 268.079102,195.849014 
	C262.839081,197.582657 262.840607,202.261475 267.372406,208.487961 
	C266.240356,209.713196 265.135345,210.909164 263.308716,211.616699 
	C263.308716,206.366684 263.308716,201.116669 263.308716,195.479553 
	C258.619171,195.479553 254.689926,195.744583 250.813339,195.406143 
	C246.814438,195.057022 242.281723,197.016602 238.751633,192.432846 
M315.271454,175.424347 
	C315.275757,177.423676 314.995331,179.482239 315.394287,181.399445 
	C315.622711,182.497314 316.955505,183.365402 317.791077,184.336945 
	C318.108765,184.008942 318.426483,183.680939 318.744171,183.352936 
	C318.744171,172.099091 318.744171,160.845261 318.744171,149.339355 
	C311.366943,149.339355 304.287323,149.339355 296.849945,149.339355 
	C296.643127,153.942856 296.446136,158.326859 296.248138,162.734085 
	C292.423248,162.734085 289.173431,162.734085 285.288330,162.734085 
	C285.288330,150.821228 285.288330,139.242828 285.288330,127.601807 
	C277.223938,127.601807 269.803680,127.601807 261.867310,127.601807 
	C261.867310,143.503571 261.867310,159.083694 261.867310,174.834290 
	C251.427689,174.834290 241.511444,174.834290 231.450607,174.834290 
	C231.450607,166.721176 231.450607,158.862427 231.450607,150.461319 
	C236.778427,150.461319 241.699142,150.461319 246.529724,150.461319 
	C246.529724,137.171982 246.529724,124.437180 246.529724,111.560944 
	C240.054947,111.560944 233.970139,111.560944 227.205780,111.560944 
	C227.205780,123.224403 227.205780,134.619217 227.205780,146.162689 
	C221.145798,146.162689 215.773773,146.162689 209.917206,146.162689 
	C209.917206,143.975189 209.917206,142.174301 209.917206,140.373413 
	C209.917191,123.209030 209.447845,106.027725 210.065979,88.885628 
	C210.558624,75.223618 201.742416,65.684990 197.089706,52.915833 
	C193.320679,60.901264 189.887924,67.369904 187.215469,74.138725 
	C185.618423,78.183723 184.448364,82.690254 184.398682,87.004433 
	C184.129974,110.331573 184.271317,133.663437 184.271317,156.993668 
	C184.271317,158.905075 184.271317,160.816498 184.271317,162.699677 
	C177.701355,162.699677 171.971725,162.699677 165.749237,162.699677 
	C165.749237,132.581177 165.749237,102.841972 165.749237,72.897469 
	C150.176178,72.897469 135.111008,72.897469 119.553963,72.897469 
	C119.553963,75.032516 119.553963,76.828316 119.553963,78.624123 
	C119.553963,100.787842 119.554146,122.951561 119.553856,145.115280 
	C119.553749,153.780792 119.676720,162.449814 119.432724,171.108475 
	C119.390823,172.595596 117.845589,175.259048 116.890167,175.307312 
	C109.786278,175.666153 102.655968,175.502029 95.287148,175.502029 
	C95.287148,163.107574 95.287148,151.238342 95.287148,138.953064 
	C99.421310,138.953064 103.189857,138.953064 107.093231,138.953064 
	C107.093231,127.623222 107.093231,116.713730 107.093231,105.617050 
	C101.673477,105.617050 96.610977,105.617050 91.024643,105.617050 
	C91.024643,115.536545 91.024643,125.122787 91.024643,135.398422 
	C84.134651,135.398422 77.746475,135.398422 70.831604,135.398422 
	C70.831604,146.003036 70.831604,155.913635 70.831604,165.806107 
	C64.662003,165.806107 59.061874,165.806107 52.786652,165.806107 
	C52.786652,160.503479 52.786652,155.459000 52.786652,150.421936 
	C46.521160,150.421936 40.942059,150.421936 35.186272,150.421936 
	C35.186272,161.695938 35.186272,172.630310 35.186272,183.564667 
	C35.697281,183.799026 36.208290,184.033386 36.719299,184.267746 
	C37.388889,182.904404 38.609566,181.552521 38.638153,180.175888 
	C38.816433,171.590027 38.728073,162.998642 38.728073,154.368195 
	C42.557735,154.368195 45.630104,154.368195 49.151012,154.368195 
	C49.151012,159.614334 49.151012,164.547958 49.151012,169.610901 
	C57.961258,169.610901 66.308739,169.610901 75.117035,169.610901 
	C75.117035,159.265289 75.117035,149.342926 75.117035,139.400818 
	C80.653481,139.400818 85.715912,139.400818 91.300964,139.400818 
	C91.300964,152.819565 91.300964,165.887024 91.300964,179.069794 
	C102.233826,179.069794 112.628609,179.069794 123.534729,179.069794 
	C123.534729,144.945053 123.534729,111.192276 123.534729,77.098648 
	C136.579803,77.098648 149.107544,77.098648 162.278442,77.098648 
	C162.278442,107.175339 162.278442,136.888519 162.278442,166.565094 
	C171.172668,166.565094 179.418655,166.565094 188.041855,166.565094 
	C188.041855,164.412674 188.041855,162.603790 188.041855,160.794907 
	C188.041855,137.631317 188.570724,114.450333 187.810013,91.311752 
	C187.450775,80.384415 192.494583,72.080322 197.154938,62.034843 
	C201.236023,71.914558 206.834106,79.737015 206.306458,90.411682 
	C205.468307,107.367996 206.064346,124.396141 206.100418,141.393814 
	C206.106674,144.341507 206.343582,147.288712 206.497635,150.771545 
	C213.501480,150.771545 220.079865,150.771545 227.253036,150.771545 
	C227.253036,160.398376 227.253036,169.470352 227.253036,178.782928 
	C240.279404,178.782928 252.691833,178.782928 265.821533,178.782928 
	C265.821533,163.021561 265.821533,147.469131 265.821533,131.447708 
	C270.003937,131.447708 273.484802,131.614731 276.942047,131.400482 
	C280.362030,131.188538 281.714874,132.375580 281.614380,135.932922 
	C281.407379,143.259415 281.553253,150.595871 281.553802,157.928238 
	C281.554016,160.831146 281.553864,163.734070 281.553864,166.637299 
	C288.292297,166.637299 294.060883,166.637299 300.406616,166.637299 
	C300.406616,162.110840 300.406616,157.854233 300.406616,153.324493 
	C305.569031,153.324493 310.147614,153.324493 315.271881,153.324493 
	C315.271881,160.535980 315.271881,167.489044 315.271454,175.424347 
M55.944210,264.574280 
	C57.327236,267.229279 58.569248,269.973145 60.159824,272.497345 
	C60.834957,273.568787 62.201271,274.817322 63.321987,274.887268 
	C67.725403,275.162079 72.156097,274.999725 77.241333,274.999725 
	C73.537842,268.486023 70.206055,262.626068 66.880920,256.777802 
	C74.342644,252.374359 76.635139,247.608749 75.106071,240.131668 
	C73.780106,233.647797 69.922287,229.598938 63.210087,229.270889 
	C53.955795,228.818634 44.662842,229.157547 35.292030,229.157547 
	C35.292030,244.571487 35.292030,259.630737 35.292030,274.712311 
	C40.004421,274.712311 44.416199,274.712311 49.323662,274.712311 
	C49.323662,269.370270 49.323662,264.308380 49.323662,259.370453 
	C53.968792,258.048370 54.136951,261.781250 55.944210,264.574280 
M119.033646,244.560150 
	C113.345024,251.796387 113.790627,259.701111 116.933777,267.639130 
	C119.256783,273.505859 124.853981,276.450989 130.907776,275.926086 
	C135.887863,275.494232 140.888840,275.303772 145.880478,275.005035 
	C147.152908,274.928925 148.425034,274.847839 149.717712,274.767761 
	C149.717712,259.391266 149.717712,244.357544 149.717712,229.309341 
	C145.369614,229.309341 141.315750,229.309341 136.877686,229.309341 
	C136.877686,233.825256 136.877686,238.037018 136.877686,242.580597 
	C130.443756,239.097321 124.745262,239.183701 119.033646,244.560150 
M95.444885,239.824371 
	C84.633057,240.321045 78.821510,245.284470 77.338478,255.288330 
	C76.029228,264.119934 80.728699,272.562042 88.520195,275.375153 
	C97.344940,278.561279 107.029182,275.246063 112.131783,266.955780 
	C108.659096,265.413116 105.244949,263.896484 101.830803,262.379852 
	C101.898491,262.880219 101.966179,263.380585 102.033859,263.880951 
	C99.441559,264.712433 96.840332,266.155548 94.260689,266.117920 
	C92.966713,266.098999 91.712067,263.384125 89.565620,260.861176 
	C94.889359,260.861176 98.363922,260.861176 101.838478,260.861176 
	C105.448807,260.861176 109.059135,260.861176 112.605186,260.861176 
	C113.747841,248.360764 107.931435,241.070160 95.444885,239.824371 
M214.003067,273.248413 
	C214.617950,273.831512 215.211288,274.889893 215.851273,274.918915 
	C219.452957,275.082123 223.065872,274.997681 226.976654,274.997681 
	C226.976654,266.498260 227.251144,258.525177 226.894836,250.580353 
	C226.576447,243.480499 220.386993,238.989838 213.166275,240.371933 
	C210.471939,240.887650 207.947311,242.290131 205.624298,243.181244 
	C201.725845,239.308426 197.092239,241.848953 192.714478,241.220627 
	C192.714478,252.844299 192.714478,263.766846 192.714478,274.739441 
	C196.939362,274.739441 200.864182,274.739441 205.200867,274.739441 
	C205.200867,268.679260 205.062119,262.880981 205.261566,257.094391 
	C205.356079,254.352600 206.128845,251.736847 209.868027,251.854813 
	C213.589340,251.972183 214.051132,254.330856 214.007431,257.301239 
	C213.933929,262.296539 213.988647,267.293701 214.003067,273.248413 
M188.390503,252.424500 
	C185.209030,242.983444 178.557114,238.842957 168.409424,239.987320 
	C160.144714,240.919342 154.618942,246.715134 153.536758,255.586716 
	C152.451416,264.484222 156.996796,272.644318 164.561707,275.379303 
	C173.442245,278.589935 183.020981,275.343658 188.302261,266.968842 
	C184.825226,265.421356 181.418472,263.905121 178.011703,262.388885 
	C178.057877,262.812622 178.104050,263.236328 178.150208,263.660065 
	C175.714066,264.631775 173.273743,266.322784 170.843307,266.308685 
	C169.356476,266.300049 167.884827,263.673279 166.406357,262.222321 
	C166.668381,261.748077 166.930405,261.273804 167.192444,260.799561 
	C174.391373,260.799561 181.590302,260.799561 189.133438,260.799561 
	C188.943115,257.841461 188.794647,255.533539 188.390503,252.424500 
M259.681854,271.848846 
	C265.003357,276.777618 271.518982,276.798096 278.012360,275.841583 
	C285.601044,274.723755 290.714417,269.101593 291.863220,261.464264 
	C293.132874,253.023178 289.598602,245.145203 283.088165,241.904724 
	C274.679474,237.719406 263.715973,239.566406 258.343750,246.073380 
	C252.660645,252.956955 253.001831,263.555573 259.681854,271.848846 
M254.500000,224.139755 
	C274.159821,224.139740 293.819885,224.184280 313.478973,224.065491 
	C315.293274,224.054504 317.101288,223.003342 318.912201,222.435165 
	C317.057556,221.910202 315.203308,220.927887 313.348175,220.926117 
	C233.376068,220.849701 153.403854,220.849045 73.431755,220.931519 
	C71.612816,220.933395 69.794968,221.996399 67.976616,222.564438 
	C69.838600,223.089523 71.699974,224.071030 73.562660,224.073517 
	C133.541702,224.153931 193.520859,224.139816 254.500000,224.139755 
M234.063873,266.956146 
	C235.734512,275.214478 239.934189,276.964813 252.767960,274.618011 
	C252.767960,271.752686 252.767960,268.847260 252.767960,265.988892 
	C246.568481,264.848785 245.811371,262.342041 247.806274,250.062485 
	C249.444122,249.739456 251.146240,249.403748 252.801407,249.077286 
	C252.801407,246.642868 252.801407,244.535126 252.801407,242.274948 
	C251.036209,242.038818 249.460281,241.828003 247.348358,241.545486 
	C247.348358,238.134171 247.348358,234.907608 247.348358,231.853104 
	C242.724564,231.853104 238.680679,231.853104 235.043747,231.853104 
	C232.947556,235.723892 237.673264,241.933136 230.101257,242.516724 
	C230.101257,244.799271 230.101257,246.782822 230.101257,249.010590 
	C231.444824,249.438278 232.750839,249.854004 234.004364,250.253021 
	C234.004364,255.769196 234.004364,260.917175 234.063873,266.956146 
M295.828583,267.445740 
	C295.828583,269.864746 295.828583,272.283783 295.828583,274.627075 
	C300.528046,274.627075 304.565674,274.627075 308.860504,274.627075 
	C308.860504,268.951447 308.878784,263.653595 308.854370,258.355957 
	C308.836609,254.504730 310.983002,252.609375 314.540924,252.048767 
	C315.936005,251.828964 317.368561,251.846954 318.666595,251.764145 
	C318.666595,247.786118 318.666595,244.219696 318.666595,239.682236 
	C311.104431,243.361618 303.620667,240.389145 295.828522,241.401611 
	C295.828522,249.935837 295.828522,258.198395 295.828583,267.445740 
M262.977997,189.619614 
	C260.514526,188.907059 258.051056,188.194504 254.913895,187.287094 
	C255.084137,190.328568 255.178131,192.007660 255.306076,194.293213 
	C258.259277,192.641251 262.944916,196.821991 262.977997,189.619614 
M118.904419,193.700058 
	C121.134315,193.700058 123.364204,193.700058 125.628876,193.700058 
	C125.628876,191.579575 125.628876,189.905090 125.628876,188.368378 
	C122.888100,188.368378 120.532623,188.368378 117.927544,188.368378 
	C118.052322,190.219543 118.150169,191.671143 118.904419,193.700058 
M42.097630,220.899414 
	C41.103035,220.886520 40.058781,220.674606 39.125523,220.907501 
	C37.736874,221.254028 36.426651,221.914825 35.083061,222.441879 
	C36.387428,223.007660 37.647877,223.761261 39.010063,224.079758 
	C40.098701,224.334305 41.492672,224.390762 42.399921,223.893890 
	C42.935963,223.600281 42.788818,222.059311 42.097630,220.899414 
z"/>
<path fill="#7F87A5" opacity="1.000000" stroke="none" 
	d="
M315.271667,174.933228 
	C315.271881,167.489044 315.271881,160.535980 315.271881,153.324493 
	C310.147614,153.324493 305.569031,153.324493 300.406616,153.324493 
	C300.406616,157.854233 300.406616,162.110840 300.406616,166.637299 
	C294.060883,166.637299 288.292297,166.637299 281.553864,166.637299 
	C281.553864,163.734070 281.554016,160.831146 281.553802,157.928238 
	C281.553253,150.595871 281.407379,143.259415 281.614380,135.932922 
	C281.714874,132.375580 280.362030,131.188538 276.942047,131.400482 
	C273.484802,131.614731 270.003937,131.447708 265.821533,131.447708 
	C265.821533,147.469131 265.821533,163.021561 265.821533,178.782928 
	C252.691833,178.782928 240.279404,178.782928 227.253036,178.782928 
	C227.253036,169.470352 227.253036,160.398376 227.253036,150.771545 
	C220.079865,150.771545 213.501480,150.771545 206.497635,150.771545 
	C206.343582,147.288712 206.106674,144.341507 206.100418,141.393814 
	C206.064346,124.396141 205.468307,107.367996 206.306458,90.411682 
	C206.834106,79.737015 201.236023,71.914558 197.154938,62.034843 
	C192.494583,72.080322 187.450775,80.384415 187.810013,91.311752 
	C188.570724,114.450333 188.041855,137.631317 188.041855,160.794907 
	C188.041855,162.603790 188.041855,164.412674 188.041855,166.565094 
	C179.418655,166.565094 171.172668,166.565094 162.278442,166.565094 
	C162.278442,136.888519 162.278442,107.175339 162.278442,77.098648 
	C149.107544,77.098648 136.579803,77.098648 123.534729,77.098648 
	C123.534729,111.192276 123.534729,144.945053 123.534729,179.069794 
	C112.628609,179.069794 102.233826,179.069794 91.300964,179.069794 
	C91.300964,165.887024 91.300964,152.819565 91.300964,139.400818 
	C85.715912,139.400818 80.653481,139.400818 75.117035,139.400818 
	C75.117035,149.342926 75.117035,159.265289 75.117035,169.610901 
	C66.308739,169.610901 57.961258,169.610901 49.151012,169.610901 
	C49.151012,164.547958 49.151012,159.614334 49.151012,154.368195 
	C45.630104,154.368195 42.557735,154.368195 38.728073,154.368195 
	C38.728073,162.998642 38.816433,171.590027 38.638153,180.175888 
	C38.609566,181.552521 37.388889,182.904404 36.719299,184.267746 
	C36.208290,184.033386 35.697281,183.799026 35.186272,183.564667 
	C35.186272,172.630310 35.186272,161.695938 35.186272,150.421936 
	C40.942059,150.421936 46.521160,150.421936 52.786652,150.421936 
	C52.786652,155.459000 52.786652,160.503479 52.786652,165.806107 
	C59.061874,165.806107 64.662003,165.806107 70.831604,165.806107 
	C70.831604,155.913635 70.831604,146.003036 70.831604,135.398422 
	C77.746475,135.398422 84.134651,135.398422 91.024643,135.398422 
	C91.024643,125.122787 91.024643,115.536545 91.024643,105.617050 
	C96.610977,105.617050 101.673477,105.617050 107.093231,105.617050 
	C107.093231,116.713730 107.093231,127.623222 107.093231,138.953064 
	C103.189857,138.953064 99.421310,138.953064 95.287148,138.953064 
	C95.287148,151.238342 95.287148,163.107574 95.287148,175.502029 
	C102.655968,175.502029 109.786278,175.666153 116.890167,175.307312 
	C117.845589,175.259048 119.390823,172.595596 119.432724,171.108475 
	C119.676720,162.449814 119.553749,153.780792 119.553856,145.115280 
	C119.554146,122.951561 119.553963,100.787842 119.553963,78.624123 
	C119.553963,76.828316 119.553963,75.032516 119.553963,72.897469 
	C135.111008,72.897469 150.176178,72.897469 165.749237,72.897469 
	C165.749237,102.841972 165.749237,132.581177 165.749237,162.699677 
	C171.971725,162.699677 177.701355,162.699677 184.271317,162.699677 
	C184.271317,160.816498 184.271317,158.905075 184.271317,156.993668 
	C184.271317,133.663437 184.129974,110.331573 184.398682,87.004433 
	C184.448364,82.690254 185.618423,78.183723 187.215469,74.138725 
	C189.887924,67.369904 193.320679,60.901264 197.089706,52.915833 
	C201.742416,65.684990 210.558624,75.223618 210.065979,88.885628 
	C209.447845,106.027725 209.917191,123.209030 209.917206,140.373413 
	C209.917206,142.174301 209.917206,143.975189 209.917206,146.162689 
	C215.773773,146.162689 221.145798,146.162689 227.205780,146.162689 
	C227.205780,134.619217 227.205780,123.224403 227.205780,111.560944 
	C233.970139,111.560944 240.054947,111.560944 246.529724,111.560944 
	C246.529724,124.437180 246.529724,137.171982 246.529724,150.461319 
	C241.699142,150.461319 236.778427,150.461319 231.450607,150.461319 
	C231.450607,158.862427 231.450607,166.721176 231.450607,174.834290 
	C241.511444,174.834290 251.427689,174.834290 261.867310,174.834290 
	C261.867310,159.083694 261.867310,143.503571 261.867310,127.601807 
	C269.803680,127.601807 277.223938,127.601807 285.288330,127.601807 
	C285.288330,139.242828 285.288330,150.821228 285.288330,162.734085 
	C289.173431,162.734085 292.423248,162.734085 296.248138,162.734085 
	C296.446136,158.326859 296.643127,153.942856 296.849945,149.339355 
	C304.287323,149.339355 311.366943,149.339355 318.744171,149.339355 
	C318.744171,160.845261 318.744171,172.099091 318.744171,183.352936 
	C318.426483,183.680939 318.108765,184.008942 317.791077,184.336945 
	C316.955505,183.365402 315.622711,182.497314 315.394287,181.399445 
	C314.995331,179.482239 315.275757,177.423676 315.271667,174.933228 
M243.866547,121.598724 
	C243.866547,119.493256 243.866547,117.387787 243.866547,115.035812 
	C239.321106,115.035812 235.423706,115.035812 231.317795,115.035812 
	C231.317795,125.801437 231.317795,136.292496 231.317795,146.734146 
	C235.623245,146.734146 239.524490,146.734146 243.866409,146.734146 
	C243.866409,138.455078 243.866409,130.516663 243.866547,121.598724 
M103.998528,113.661743 
	C103.901482,112.222351 103.804443,110.782959 103.710159,109.384399 
	C100.449753,109.384399 97.572693,109.384399 94.718567,109.384399 
	C94.718567,118.325073 94.718567,126.877731 94.718567,135.467224 
	C98.008453,135.467224 100.878723,135.467224 103.998596,135.467224 
	C103.998596,128.242188 103.998596,121.436516 103.998528,113.661743 
z"/>
<path fill="#1272B8" opacity="1.000000" stroke="none" 
	d="
M55.771187,264.238373 
	C54.136951,261.781250 53.968792,258.048370 49.323662,259.370453 
	C49.323662,264.308380 49.323662,269.370270 49.323662,274.712311 
	C44.416199,274.712311 40.004421,274.712311 35.292030,274.712311 
	C35.292030,259.630737 35.292030,244.571487 35.292030,229.157547 
	C44.662842,229.157547 53.955795,228.818634 63.210087,229.270889 
	C69.922287,229.598938 73.780106,233.647797 75.106071,240.131668 
	C76.635139,247.608749 74.342644,252.374359 66.880920,256.777802 
	C70.206055,262.626068 73.537842,268.486023 77.241333,274.999725 
	C72.156097,274.999725 67.725403,275.162079 63.321987,274.887268 
	C62.201271,274.817322 60.834957,273.568787 60.159824,272.497345 
	C58.569248,269.973145 57.327236,267.229279 55.771187,264.238373 
M49.149380,244.467560 
	C49.232605,245.908981 49.315830,247.350403 49.471710,250.050156 
	C53.505913,248.965134 57.153084,248.386871 60.335361,246.847519 
	C61.139202,246.458694 61.144321,241.593292 60.338608,241.200378 
	C57.156807,239.648743 53.506596,239.057663 49.468571,237.957260 
	C49.314678,240.648056 49.232059,242.092651 49.149380,244.467560 
z"/>
<path fill="#1272B8" opacity="1.000000" stroke="none" 
	d="
M119.294998,244.297714 
	C124.745262,239.183701 130.443756,239.097321 136.877686,242.580597 
	C136.877686,238.037018 136.877686,233.825256 136.877686,229.309341 
	C141.315750,229.309341 145.369614,229.309341 149.717712,229.309341 
	C149.717712,244.357544 149.717712,259.391266 149.717712,274.767761 
	C148.425034,274.847839 147.152908,274.928925 145.880478,275.005035 
	C140.888840,275.303772 135.887863,275.494232 130.907776,275.926086 
	C124.853981,276.450989 119.256783,273.505859 116.933777,267.639130 
	C113.790627,259.701111 113.345024,251.796387 119.294998,244.297714 
M136.288925,252.663498 
	C134.658310,251.918091 132.735077,250.260727 131.473557,250.665543 
	C130.002975,251.137421 128.580048,253.262299 128.105362,254.943497 
	C127.541702,256.939819 127.427826,259.468445 128.195038,261.320740 
	C128.956192,263.158417 131.054779,264.442169 132.566818,265.968842 
	C134.053284,264.416473 136.320404,263.083710 136.834045,261.257690 
	C137.518326,258.825073 136.838440,256.008759 136.288925,252.663498 
z"/>
<path fill="#1674B9" opacity="1.000000" stroke="none" 
	d="
M95.889328,239.830597 
	C107.931435,241.070160 113.747841,248.360764 112.605186,260.861176 
	C109.059135,260.861176 105.448807,260.861176 101.838478,260.861176 
	C98.363922,260.861176 94.889359,260.861176 89.565620,260.861176 
	C91.712067,263.384125 92.966713,266.098999 94.260689,266.117920 
	C96.840332,266.155548 99.441559,264.712433 102.033859,263.880951 
	C101.966179,263.380585 101.898491,262.880219 101.830803,262.379852 
	C105.244949,263.896484 108.659096,265.413116 112.131783,266.955780 
	C107.029182,275.246063 97.344940,278.561279 88.520195,275.375153 
	C80.728699,272.562042 76.029228,264.119934 77.338478,255.288330 
	C78.821510,245.284470 84.633057,240.321045 95.889328,239.830597 
M91.912529,250.412918 
	C92.161087,251.321915 92.321518,252.976044 92.672661,253.017563 
	C94.764816,253.264984 96.901039,253.139923 99.449699,253.139923 
	C98.314880,248.319748 95.956421,247.787430 91.912529,250.412918 
z"/>
<path fill="#1674B9" opacity="1.000000" stroke="none" 
	d="
M213.996246,272.769257 
	C213.988647,267.293701 213.933929,262.296539 214.007431,257.301239 
	C214.051132,254.330856 213.589340,251.972183 209.868027,251.854813 
	C206.128845,251.736847 205.356079,254.352600 205.261566,257.094391 
	C205.062119,262.880981 205.200867,268.679260 205.200867,274.739441 
	C200.864182,274.739441 196.939362,274.739441 192.714478,274.739441 
	C192.714478,263.766846 192.714478,252.844299 192.714478,241.220627 
	C197.092239,241.848953 201.725845,239.308426 205.624298,243.181244 
	C207.947311,242.290131 210.471939,240.887650 213.166275,240.371933 
	C220.386993,238.989838 226.576447,243.480499 226.894836,250.580353 
	C227.251144,258.525177 226.976654,266.498260 226.976654,274.997681 
	C223.065872,274.997681 219.452957,275.082123 215.851273,274.918915 
	C215.211288,274.889893 214.617950,273.831512 213.996246,272.769257 
z"/>
<path fill="#1674B9" opacity="1.000000" stroke="none" 
	d="
M188.518341,252.825058 
	C188.794647,255.533539 188.943115,257.841461 189.133438,260.799561 
	C181.590302,260.799561 174.391373,260.799561 167.192444,260.799561 
	C166.930405,261.273804 166.668381,261.748077 166.406357,262.222321 
	C167.884827,263.673279 169.356476,266.300049 170.843307,266.308685 
	C173.273743,266.322784 175.714066,264.631775 178.150208,263.660065 
	C178.104050,263.236328 178.057877,262.812622 178.011703,262.388885 
	C181.418472,263.905121 184.825226,265.421356 188.302261,266.968842 
	C183.020981,275.343658 173.442245,278.589935 164.561707,275.379303 
	C156.996796,272.644318 152.451416,264.484222 153.536758,255.586716 
	C154.618942,246.715134 160.144714,240.919342 168.409424,239.987320 
	C178.557114,238.842957 185.209030,242.983444 188.518341,252.825058 
M172.290375,253.167816 
	C173.374222,253.045761 174.458084,252.923706 175.541946,252.801651 
	C175.719696,252.392242 175.897446,251.982834 176.075211,251.573441 
	C174.470673,250.631195 172.843536,248.920990 171.268066,248.967331 
	C169.757538,249.011780 168.300613,250.878799 166.820129,251.944870 
	C167.055801,252.352615 167.291489,252.760376 167.527161,253.168121 
	C168.836990,253.168121 170.146820,253.168121 172.290375,253.167816 
z"/>
<path fill="#1473B8" opacity="1.000000" stroke="none" 
	d="
M259.419495,271.594116 
	C253.001831,263.555573 252.660645,252.956955 258.343750,246.073380 
	C263.715973,239.566406 274.679474,237.719406 283.088165,241.904724 
	C289.598602,245.145203 293.132874,253.023178 291.863220,261.464264 
	C290.714417,269.101593 285.601044,274.723755 278.012360,275.841583 
	C271.518982,276.798096 265.003357,276.777618 259.419495,271.594116 
M278.758423,260.893982 
	C278.826538,260.232758 278.941132,259.572540 278.955566,258.910156 
	C279.092499,252.625137 276.763062,249.135681 272.692505,249.498062 
	C268.908112,249.834976 266.533661,254.449600 267.374176,259.841400 
	C267.425323,260.169403 267.403534,260.580353 267.592010,260.804169 
	C269.285553,262.814972 270.688354,265.869720 272.818787,266.522766 
	C275.876801,267.460175 277.829102,264.769135 278.758423,260.893982 
z"/>
<path fill="#618FCA" opacity="1.000000" stroke="none" 
	d="
M146.978363,216.155823 
	C142.744812,216.435150 138.474792,217.169250 134.290558,216.833710 
	C131.508209,216.610565 128.848434,214.859467 126.114464,213.784683 
	C126.081818,213.961121 125.860794,215.155777 125.611023,216.505768 
	C123.160301,216.505768 120.886421,216.505768 118.420609,216.505768 
	C118.166824,215.106934 117.939217,213.852417 117.638428,212.194519 
	C111.080696,220.184265 103.966370,217.416931 96.554794,213.377136 
	C96.535271,212.535400 96.762756,211.892212 97.288094,211.282288 
	C98.979408,210.669037 100.372871,210.022522 101.281334,209.601013 
	C103.954979,210.169174 106.285950,210.664505 109.653069,211.380020 
	C104.976685,208.108047 101.547432,205.708679 98.085342,202.953674 
	C98.049339,202.123123 98.046173,201.648193 98.043007,201.173248 
	C100.985115,193.940247 108.908417,192.345993 116.611458,198.035721 
	C114.593353,199.733917 112.708778,201.319748 111.231316,202.563004 
	C113.005173,203.593094 115.227539,204.883652 117.895554,206.432983 
	C117.895554,202.910339 117.895554,199.397812 117.895554,195.605804 
	C120.713409,195.605804 122.966675,195.605804 125.777397,195.605804 
	C125.777397,199.486633 125.777397,203.348251 125.777397,207.396057 
	C128.291580,205.850281 130.184235,204.282852 132.358704,203.461609 
	C134.600525,202.614929 137.116730,202.494751 139.512894,202.056702 
	C139.459976,201.508331 139.407074,200.959961 139.354156,200.411575 
	C135.483643,201.026535 131.613144,201.641479 127.402237,202.310516 
	C129.022522,196.021729 133.108353,194.016159 140.935318,194.997223 
	C145.753143,195.601089 147.626678,197.975800 147.689987,203.664368 
	C147.728806,207.153046 147.693008,210.642548 147.506790,214.744324 
	C147.138336,215.593155 147.023499,215.859451 146.978363,216.155823 
M136.157745,208.911331 
	C135.825974,209.708389 135.494202,210.505447 134.790680,212.195633 
	C137.195587,210.957870 138.510254,210.281235 139.824921,209.604614 
	C139.806686,209.234451 139.788467,208.864304 139.770233,208.494141 
	C138.721298,208.494141 137.672379,208.494141 136.157745,208.911331 
z"/>
<path fill="#717A9C" opacity="1.000000" stroke="none" 
	d="
M254.000000,224.139816 
	C193.520859,224.139816 133.541702,224.153931 73.562660,224.073517 
	C71.699974,224.071030 69.838600,223.089523 67.976616,222.564438 
	C69.794968,221.996399 71.612816,220.933395 73.431755,220.931519 
	C153.403854,220.849045 233.376068,220.849701 313.348175,220.926117 
	C315.203308,220.927887 317.057556,221.910202 318.912201,222.435165 
	C317.101288,223.003342 315.293274,224.054504 313.478973,224.065491 
	C293.819885,224.184280 274.159821,224.139740 254.000000,224.139816 
z"/>
<path fill="#1976BA" opacity="1.000000" stroke="none" 
	d="
M234.034119,266.510681 
	C234.004364,260.917175 234.004364,255.769196 234.004364,250.253021 
	C232.750839,249.854004 231.444824,249.438278 230.101257,249.010590 
	C230.101257,246.782822 230.101257,244.799271 230.101257,242.516724 
	C237.673264,241.933136 232.947556,235.723892 235.043747,231.853104 
	C238.680679,231.853104 242.724564,231.853104 247.348358,231.853104 
	C247.348358,234.907608 247.348358,238.134171 247.348358,241.545486 
	C249.460281,241.828003 251.036209,242.038818 252.801407,242.274948 
	C252.801407,244.535126 252.801407,246.642868 252.801407,249.077286 
	C251.146240,249.403748 249.444122,249.739456 247.806274,250.062485 
	C245.811371,262.342041 246.568481,264.848785 252.767960,265.988892 
	C252.767960,268.847260 252.767960,271.752686 252.767960,274.618011 
	C239.934189,276.964813 235.734512,275.214478 234.034119,266.510681 
z"/>
<path fill="#608EC9" opacity="1.000000" stroke="none" 
	d="
M296.132416,213.386948 
	C296.608887,218.512772 292.620544,216.878403 290.415924,216.650681 
	C288.579559,216.460983 286.905029,214.704376 285.040771,212.856506 
	C284.052795,207.782761 287.453735,202.363876 281.499298,200.364105 
	C278.430145,200.364105 275.360962,200.364105 272.291809,200.364105 
	C276.836639,203.224030 283.835022,203.115173 283.140991,211.056107 
	C279.403870,218.223495 272.661346,219.367844 264.285980,213.690842 
	C264.021454,212.815796 264.025909,212.460449 264.030334,212.105133 
	C265.135345,210.909164 266.240356,209.713196 267.372406,208.487961 
	C262.840607,202.261475 262.839081,197.582657 268.079102,195.849014 
	C271.314392,194.778595 275.164429,195.484818 278.735901,195.545715 
	C280.576996,195.577087 282.412384,195.941284 284.575653,196.192947 
	C284.857941,193.632507 285.067657,191.730331 285.304352,189.583740 
	C287.753174,189.583740 290.001495,189.583740 291.446045,189.583740 
	C293.315277,192.903214 294.922577,195.757553 296.322754,199.112167 
	C296.040771,199.892014 296.014404,200.176804 295.624817,200.616745 
	C291.565948,203.239914 291.974304,208.890320 295.964172,211.259354 
	C296.035889,212.251541 296.084137,212.819244 296.132416,213.386948 
z"/>
<path fill="#1473B8" opacity="1.000000" stroke="none" 
	d="
M295.828552,266.953339 
	C295.828522,258.198395 295.828522,249.935837 295.828522,241.401611 
	C303.620667,240.389145 311.104431,243.361618 318.666595,239.682236 
	C318.666595,244.219696 318.666595,247.786118 318.666595,251.764145 
	C317.368561,251.846954 315.936005,251.828964 314.540924,252.048767 
	C310.983002,252.609375 308.836609,254.504730 308.854370,258.355957 
	C308.878784,263.653595 308.860504,268.951447 308.860504,274.627075 
	C304.565674,274.627075 300.528046,274.627075 295.828583,274.627075 
	C295.828583,272.283783 295.828583,269.864746 295.828552,266.953339 
z"/>
<path fill="#5D8CC8" opacity="1.000000" stroke="none" 
	d="
M66.124329,217.052719 
	C64.417290,222.877014 61.732460,224.403381 53.497898,224.121948 
	C49.178188,223.974319 45.113621,223.385773 45.150490,217.342331 
	C48.024559,217.499756 50.534729,217.865601 52.849297,218.745789 
	C55.948116,219.924210 57.901855,218.660706 58.321472,215.606766 
	C54.177383,214.808777 50.081547,214.020065 45.971424,212.850311 
	C45.930851,212.216415 45.904568,211.963577 45.786263,211.327789 
	C45.350975,207.921997 45.007702,204.899155 44.664433,201.876312 
	C47.728783,195.384888 50.193707,194.271332 57.090748,195.481140 
	C59.574181,195.916733 62.221973,195.415329 65.312851,195.775024 
	C65.928734,203.156586 66.026535,210.104645 66.124329,217.052719 
M58.154594,205.426590 
	C57.233799,203.966583 56.313007,202.506561 55.392212,201.046555 
	C54.307629,202.258713 52.404037,203.432404 52.344864,204.692703 
	C52.270161,206.283676 53.699432,207.945251 54.479927,209.576370 
	C55.700184,208.463943 56.920441,207.351517 58.154594,205.426590 
z"/>
<path fill="#5F8EC9" opacity="1.000000" stroke="none" 
	d="
M240.068649,210.203552 
	C234.111542,217.542984 226.184372,219.496048 219.487900,215.274094 
	C213.340027,211.398041 211.099030,202.530136 214.427155,195.248077 
	C218.950485,185.350845 230.477615,184.016754 238.866272,193.077728 
	C238.983841,194.358459 238.986771,194.994293 238.674347,195.839417 
	C236.768814,196.862518 235.178650,197.676346 233.441605,198.565338 
	C232.741013,197.757629 232.331650,196.844879 231.683136,196.619095 
	C229.574310,195.884903 226.843903,194.295151 225.316589,195.032150 
	C220.918732,197.154312 221.341080,201.697067 222.580780,205.428604 
	C223.188461,207.257736 225.882874,208.471710 227.787384,209.730225 
	C228.200165,210.002991 229.663849,209.505905 229.985367,208.969193 
	C233.172791,203.648148 236.635452,207.321304 240.008102,208.762085 
	C240.017136,209.383713 240.042892,209.793640 240.068649,210.203552 
z"/>
<path fill="#5F8DC9" opacity="1.000000" stroke="none" 
	d="
M180.259308,210.099350 
	C180.146744,212.052902 180.034195,214.006470 179.921082,215.969513 
	C175.463959,216.328339 171.363190,216.889679 167.257141,216.931519 
	C161.920319,216.985916 158.173035,211.877457 158.331741,205.238388 
	C158.487961,198.703430 162.237625,194.704117 167.977356,195.016830 
	C169.233047,195.085236 170.477417,195.361618 171.933868,195.572128 
	C172.071350,193.116913 172.198975,190.837708 172.341797,188.286972 
	C174.841583,188.286972 177.099411,188.286972 180.178436,188.286972 
	C180.178436,191.827576 180.178436,195.408325 180.120483,199.900101 
	C180.128113,203.907196 180.193710,207.003281 180.259308,210.099350 
M166.415909,206.410843 
	C167.239685,207.674622 167.923706,209.080765 168.974930,210.112900 
	C169.278656,210.411118 171.340500,209.732391 171.395737,209.334747 
	C171.699402,207.148926 171.789352,204.896271 171.581268,202.701767 
	C171.527039,202.129776 169.527618,201.178146 169.464966,201.254730 
	C168.333252,202.637604 167.361633,204.151474 166.415909,206.410843 
z"/>
<path fill="#6693CB" opacity="1.000000" stroke="none" 
	d="
M240.125778,210.692078 
	C240.042892,209.793640 240.017136,209.383713 240.103607,208.268661 
	C239.807114,203.585724 239.398407,199.607941 238.989700,195.630142 
	C238.986771,194.994293 238.983841,194.358459 238.974548,193.405151 
	C242.281723,197.016602 246.814438,195.057022 250.813339,195.406143 
	C254.689926,195.744583 258.619171,195.479553 263.308716,195.479553 
	C263.308716,201.116669 263.308716,206.366684 263.669525,211.860901 
	C264.025909,212.460449 264.021454,212.815796 264.013550,213.437195 
	C262.371887,217.877335 258.960083,216.730347 255.138702,216.475052 
	C255.138702,211.944427 255.138702,207.432220 255.138702,202.240829 
	C244.456085,203.644302 251.457535,212.223816 247.841278,216.419846 
	C245.933914,216.419846 243.521545,216.419846 240.555634,216.419846 
	C240.431686,214.677567 240.307297,212.929077 240.125778,210.692078 
z"/>
<path fill="#618FCA" opacity="1.000000" stroke="none" 
	d="
M181.978882,199.987701 
	C185.867706,195.035873 191.044830,193.410522 196.380310,195.466400 
	C200.837036,197.183670 203.053772,201.483337 202.336624,207.627838 
	C198.157654,207.627838 193.911285,207.627838 189.664932,207.627838 
	C189.508713,208.204712 189.352478,208.781601 189.196259,209.358475 
	C190.629044,209.812988 192.844391,211.087341 193.367111,210.588394 
	C196.662491,207.442963 199.076477,209.946823 202.025024,211.368835 
	C199.938889,215.838196 196.325241,217.054276 191.953598,217.176224 
	C186.881622,217.317703 183.389236,215.171997 181.249268,209.802505 
	C181.338562,206.088837 181.658722,203.038269 181.978882,199.987701 
z"/>
<path fill="#618FC9" opacity="1.000000" stroke="none" 
	d="
M296.466248,213.255554 
	C296.084137,212.819244 296.035889,212.251541 295.977722,210.811188 
	C295.990723,206.781281 296.013611,203.624039 296.036530,200.466782 
	C296.014404,200.176804 296.040771,199.892014 296.188538,199.496674 
	C300.021332,196.614456 303.782074,194.222244 308.901306,194.781189 
	C314.800568,195.425308 318.511963,198.926773 318.953583,205.092133 
	C319.387665,211.152328 315.731354,215.944321 310.023346,216.994019 
	C304.930328,217.930618 300.671295,216.245789 296.466248,213.255554 
M304.578217,209.571884 
	C306.268433,209.628845 309.338165,210.032074 309.424896,209.686584 
	C309.987885,207.443390 310.204132,204.990738 309.852417,202.711853 
	C309.740814,201.988617 306.703613,200.867523 306.454895,201.160248 
	C305.312561,202.504745 304.521088,204.229828 303.938904,205.932907 
	C303.649597,206.779297 304.082428,207.872543 304.578217,209.571884 
z"/>
<path fill="#5D8CC8" opacity="1.000000" stroke="none" 
	d="
M97.747406,200.976990 
	C98.046173,201.648193 98.049339,202.123123 98.091118,203.360901 
	C97.037247,205.137299 96.043640,206.855545 94.832764,207.025452 
	C91.822533,207.447876 88.713242,207.164398 84.860542,207.164398 
	C86.166130,208.802155 86.919151,209.746750 87.672180,210.695007 
	C90.350853,208.137222 90.350853,208.137222 96.990242,211.249023 
	C96.762756,211.892212 96.535271,212.535400 96.163086,213.390915 
	C89.123009,219.951691 80.490456,218.206161 76.989723,208.950714 
	C76.991707,206.395874 76.978882,204.642883 76.966049,202.889908 
	C77.400749,198.234802 80.478668,195.852005 84.586159,195.069244 
	C89.998474,194.037827 94.752892,195.303574 97.747406,200.976990 
z"/>
<path fill="#618FC9" opacity="1.000000" stroke="none" 
	d="
M42.662933,216.695572 
	C40.364910,216.695572 38.066887,216.695572 35.377533,216.695572 
	C35.377533,207.072113 35.377533,197.778030 35.377533,188.232025 
	C38.077114,188.232025 40.647312,188.232025 44.007862,188.232025 
	C44.007862,192.606567 44.007862,196.846909 43.882717,201.813171 
	C43.392693,207.257935 43.027813,211.976746 42.662933,216.695572 
z"/>
<path fill="#618FC9" opacity="1.000000" stroke="none" 
	d="
M76.616867,202.660889 
	C76.978882,204.642883 76.991707,206.395874 76.998817,208.585709 
	C76.427353,211.275894 75.861603,213.529205 75.190582,216.201782 
	C73.352249,216.346069 71.266396,216.509766 68.669800,216.236328 
	C68.018234,208.832367 67.877403,201.865555 67.736580,194.898727 
	C67.838791,192.772537 67.940994,190.646332 68.055717,188.259857 
	C70.564095,188.259857 72.834930,188.259857 75.579918,188.259857 
	C75.808311,192.966110 76.038002,197.698990 76.616867,202.660889 
z"/>
<path fill="#CEDCEE" opacity="1.000000" stroke="none" 
	d="
M42.988815,216.803894 
	C43.027813,211.976746 43.392693,207.257935 44.058075,202.246002 
	C44.358578,201.952911 44.502708,201.878372 44.583572,201.877350 
	C45.007702,204.899155 45.350975,207.921997 45.559395,211.491974 
	C45.611599,212.436539 45.798656,212.833939 45.985710,213.231354 
	C50.081547,214.020065 54.177383,214.808777 58.321472,215.606766 
	C57.901855,218.660706 55.948116,219.924210 52.849297,218.745789 
	C50.534729,217.865601 48.024559,217.499756 45.137047,216.944366 
	C44.219967,216.959961 43.767334,216.936081 42.988815,216.803894 
z"/>
<path fill="#EBF1F8" opacity="1.000000" stroke="none" 
	d="
M283.356842,211.205078 
	C283.835022,203.115173 276.836639,203.224030 272.291809,200.364105 
	C275.360962,200.364105 278.430145,200.364105 281.499298,200.364105 
	C287.453735,202.363876 284.052795,207.782761 284.883728,212.529327 
	C284.420685,212.442963 283.996674,211.898499 283.356842,211.205078 
z"/>
<path fill="#618FC9" opacity="1.000000" stroke="none" 
	d="
M262.993591,190.060974 
	C262.944916,196.821991 258.259277,192.641251 255.306076,194.293213 
	C255.178131,192.007660 255.084137,190.328568 254.913895,187.287094 
	C258.051056,188.194504 260.514526,188.907059 262.993591,190.060974 
z"/>
<path fill="#618FC9" opacity="1.000000" stroke="none" 
	d="
M118.576218,193.411407 
	C118.150169,191.671143 118.052322,190.219543 117.927544,188.368378 
	C120.532623,188.368378 122.888100,188.368378 125.628876,188.368378 
	C125.628876,189.905090 125.628876,191.579575 125.628876,193.700058 
	C123.364204,193.700058 121.134315,193.700058 118.576218,193.411407 
z"/>
<path fill="#CEDCEE" opacity="1.000000" stroke="none" 
	d="
M67.375885,194.955017 
	C67.877403,201.865555 68.018234,208.832367 68.277817,216.226257 
	C67.893005,216.752304 67.389435,216.851257 66.505096,217.001465 
	C66.026535,210.104645 65.928734,203.156586 65.711563,195.782364 
	C66.066528,195.241241 66.540863,195.126266 67.375885,194.955017 
z"/>
<path fill="#717A9C" opacity="1.000000" stroke="none" 
	d="
M42.523266,220.989349 
	C42.788818,222.059311 42.935963,223.600281 42.399921,223.893890 
	C41.492672,224.390762 40.098701,224.334305 39.010063,224.079758 
	C37.647877,223.761261 36.387428,223.007660 35.083057,222.441895 
	C36.426651,221.914825 37.736874,221.254028 39.125523,220.907501 
	C40.058781,220.674606 41.103035,220.886520 42.523266,220.989349 
z"/>
<path fill="#CEDCEE" opacity="1.000000" stroke="none" 
	d="
M181.691406,199.996811 
	C181.658722,203.038269 181.338562,206.088837 180.992233,209.580704 
	C180.966049,210.022003 180.614685,210.082138 180.436981,210.090744 
	C180.193710,207.003281 180.128113,203.907196 180.160980,200.355530 
	C180.640930,199.935257 181.022446,199.970581 181.691406,199.996811 
z"/>
<path fill="#6491CA" opacity="1.000000" stroke="none" 
	d="
M147.243652,216.106995 
	C147.023499,215.859451 147.138336,215.593155 147.487137,215.213379 
	C147.603928,215.399277 147.556442,215.728729 147.243652,216.106995 
z"/>
<path fill="#FEEF43" opacity="1.000000" stroke="none" 
	d="
M243.866486,122.088493 
	C243.866409,130.516663 243.866409,138.455078 243.866409,146.734146 
	C239.524490,146.734146 235.623245,146.734146 231.317795,146.734146 
	C231.317795,136.292496 231.317795,125.801437 231.317795,115.035812 
	C235.423706,115.035812 239.321106,115.035812 243.866547,115.035812 
	C243.866547,117.387787 243.866547,119.493256 243.866486,122.088493 
z"/>
<path fill="#FAEB49" opacity="1.000000" stroke="none" 
	d="
M103.998566,114.146301 
	C103.998596,121.436516 103.998596,128.242188 103.998596,135.467224 
	C100.878723,135.467224 98.008453,135.467224 94.718567,135.467224 
	C94.718567,126.877731 94.718567,118.325073 94.718567,109.384399 
	C97.572693,109.384399 100.449753,109.384399 103.710159,109.384399 
	C103.804443,110.782959 103.901482,112.222351 103.998566,114.146301 
z"/>
<path fill="#F8FBFD" opacity="1.000000" stroke="none" 
	d="
M49.149410,244.002411 
	C49.232059,242.092651 49.314678,240.648056 49.468571,237.957260 
	C53.506596,239.057663 57.156807,239.648743 60.338608,241.200378 
	C61.144321,241.593292 61.139202,246.458694 60.335361,246.847519 
	C57.153084,248.386871 53.505913,248.965134 49.471710,250.050156 
	C49.315830,247.350403 49.232605,245.908981 49.149410,244.002411 
z"/>
<path fill="#F8FBFD" opacity="1.000000" stroke="none" 
	d="
M136.516724,253.010376 
	C136.838440,256.008759 137.518326,258.825073 136.834045,261.257690 
	C136.320404,263.083710 134.053284,264.416473 132.566818,265.968842 
	C131.054779,264.442169 128.956192,263.158417 128.195038,261.320740 
	C127.427826,259.468445 127.541702,256.939819 128.105362,254.943497 
	C128.580048,253.262299 130.002975,251.137421 131.473557,250.665543 
	C132.735077,250.260727 134.658310,251.918091 136.516724,253.010376 
z"/>
<path fill="#F2F6FB" opacity="1.000000" stroke="none" 
	d="
M92.199799,250.108368 
	C95.956421,247.787430 98.314880,248.319748 99.449699,253.139923 
	C96.901039,253.139923 94.764816,253.264984 92.672661,253.017563 
	C92.321518,252.976044 92.161087,251.321915 92.199799,250.108368 
z"/>
<path fill="#F3F8FC" opacity="1.000000" stroke="none" 
	d="
M171.873505,253.167969 
	C170.146820,253.168121 168.836990,253.168121 167.527161,253.168121 
	C167.291489,252.760376 167.055801,252.352615 166.820129,251.944870 
	C168.300613,250.878799 169.757538,249.011780 171.268066,248.967331 
	C172.843536,248.920990 174.470673,250.631195 176.075211,251.573441 
	C175.897446,251.982834 175.719696,252.392242 175.541946,252.801651 
	C174.458084,252.923706 173.374222,253.045761 171.873505,253.167969 
z"/>
<path fill="#F3F8FC" opacity="1.000000" stroke="none" 
	d="
M278.649719,261.286682 
	C277.829102,264.769135 275.876801,267.460175 272.818787,266.522766 
	C270.688354,265.869720 269.285553,262.814972 267.592010,260.804169 
	C267.403534,260.580353 267.425323,260.169403 267.374176,259.841400 
	C266.533661,254.449600 268.908112,249.834976 272.692505,249.498062 
	C276.763062,249.135681 279.092499,252.625137 278.955566,258.910156 
	C278.941132,259.572540 278.826538,260.232758 278.649719,261.286682 
z"/>
<path fill="#D9E4F2" opacity="1.000000" stroke="none" 
	d="
M97.288094,211.282288 
	C90.350853,208.137222 90.350853,208.137222 87.672180,210.695007 
	C86.919151,209.746750 86.166130,208.802155 84.860542,207.164398 
	C88.713242,207.164398 91.822533,207.447876 94.832764,207.025452 
	C96.043640,206.855545 97.037247,205.137299 98.123962,203.716522 
	C101.547432,205.708679 104.976685,208.108047 109.653069,211.380020 
	C106.285950,210.664505 103.954979,210.169174 101.281334,209.601013 
	C100.372871,210.022522 98.979408,210.669037 97.288094,211.282288 
z"/>
<path fill="#6491CA" opacity="1.000000" stroke="none" 
	d="
M136.390594,208.702728 
	C137.672379,208.494141 138.721298,208.494141 139.770233,208.494141 
	C139.788467,208.864304 139.806686,209.234451 139.824921,209.604614 
	C138.510254,210.281235 137.195587,210.957870 134.790680,212.195633 
	C135.494202,210.505447 135.825974,209.708389 136.390594,208.702728 
z"/>
<path fill="#F2F6FB" opacity="1.000000" stroke="none" 
	d="
M295.624817,200.616745 
	C296.013611,203.624039 295.990723,206.781281 295.954285,210.386703 
	C291.974304,208.890320 291.565948,203.239914 295.624817,200.616745 
z"/>
<path fill="#F2F6FB" opacity="1.000000" stroke="none" 
	d="
M58.147644,205.832825 
	C56.920441,207.351517 55.700184,208.463943 54.479927,209.576370 
	C53.699432,207.945251 52.270161,206.283676 52.344864,204.692703 
	C52.404037,203.432404 54.307629,202.258713 55.392212,201.046555 
	C56.313007,202.506561 57.233799,203.966583 58.147644,205.832825 
z"/>
<path fill="#618FC9" opacity="1.000000" stroke="none" 
	d="
M45.971428,212.850311 
	C45.798656,212.833939 45.611599,212.436539 45.651413,211.874924 
	C45.904568,211.963577 45.930851,212.216415 45.971428,212.850311 
z"/>
<path fill="#FBFCFE" opacity="1.000000" stroke="none" 
	d="
M238.674347,195.839417 
	C239.398407,199.607941 239.807114,203.585724 240.120331,208.056946 
	C236.635452,207.321304 233.172791,203.648148 229.985367,208.969193 
	C229.663849,209.505905 228.200165,210.002991 227.787384,209.730225 
	C225.882874,208.471710 223.188461,207.257736 222.580780,205.428604 
	C221.341080,201.697067 220.918732,197.154312 225.316589,195.032150 
	C226.843903,194.295151 229.574310,195.884903 231.683136,196.619095 
	C232.331650,196.844879 232.741013,197.757629 233.441605,198.565338 
	C235.178650,197.676346 236.768814,196.862518 238.674347,195.839417 
z"/>
<path fill="#F2F6FB" opacity="1.000000" stroke="none" 
	d="
M166.385864,206.024109 
	C167.361633,204.151474 168.333252,202.637604 169.464966,201.254730 
	C169.527618,201.178146 171.527039,202.129776 171.581268,202.701767 
	C171.789352,204.896271 171.699402,207.148926 171.395737,209.334747 
	C171.340500,209.732391 169.278656,210.411118 168.974930,210.112900 
	C167.923706,209.080765 167.239685,207.674622 166.385864,206.024109 
z"/>
<path fill="#F6F9FC" opacity="1.000000" stroke="none" 
	d="
M304.383392,209.213013 
	C304.082428,207.872543 303.649597,206.779297 303.938904,205.932907 
	C304.521088,204.229828 305.312561,202.504745 306.454895,201.160248 
	C306.703613,200.867523 309.740814,201.988617 309.852417,202.711853 
	C310.204132,204.990738 309.987885,207.443390 309.424896,209.686584 
	C309.338165,210.032074 306.268433,209.628845 304.383392,209.213013 
z"/>
</svg>